<?xml version="1.0" encoding="UTF-8"?>
<svg xmlns="http://www.w3.org/2000/svg" xmlns:xlink="http://www.w3.org/1999/xlink" width="674" height="122" viewBox="84 236 674 122">
<defs>
<clipPath id="clip-0">
<path clip-rule="nonzero" d="M 87 241 L 142 241 L 142 355 L 87 355 Z M 87 241 "/>
</clipPath>
<clipPath id="clip-1">
<path clip-rule="nonzero" d="M 87.789062 268.253906 C 87.789062 282.992188 99.75 294.9375 114.503906 294.9375 C 129.257812 294.9375 141.214844 282.992188 141.214844 268.253906 C 141.214844 253.515625 129.257812 241.570312 114.503906 241.570312 C 99.746094 241.570312 87.789062 253.515625 87.789062 268.253906 M 100.472656 268.253906 C 100.472656 260.527344 106.765625 254.242188 114.503906 254.242188 C 122.238281 254.242188 128.53125 260.527344 128.53125 268.253906 C 128.53125 275.984375 122.238281 282.269531 114.503906 282.269531 C 106.765625 282.269531 100.472656 275.984375 100.472656 268.253906 M 87.789062 328.296875 C 87.789062 343.035156 99.75 354.980469 114.503906 354.980469 C 129.253906 354.980469 141.214844 343.035156 141.214844 328.296875 C 141.214844 313.5625 129.253906 301.613281 114.503906 301.613281 C 99.75 301.613281 87.789062 313.5625 87.789062 328.296875 "/>
</clipPath>
<radialGradient id="radial-pattern-0" gradientUnits="userSpaceOnUse" cx="0" cy="0" fx="0" fy="0" r="91.415491" gradientTransform="matrix(0.497832, 0.991113, 0.396984, -0.797543, 103.366562, 257.438994)">
<stop offset="0" stop-color="rgb(98.823547%, 0%, 18.03894%)" stop-opacity="1"/>
<stop offset="0.5" stop-color="rgb(98.823547%, 0%, 18.03894%)" stop-opacity="1"/>
<stop offset="0.515625" stop-color="rgb(98.823547%, 0.392151%, 18.431091%)" stop-opacity="1"/>
<stop offset="0.519531" stop-color="rgb(98.823547%, 1.176453%, 18.823242%)" stop-opacity="1"/>
<stop offset="0.523438" stop-color="rgb(98.823547%, 1.960754%, 18.823242%)" stop-opacity="1"/>
<stop offset="0.527344" stop-color="rgb(98.823547%, 2.352905%, 19.215393%)" stop-opacity="1"/>
<stop offset="0.53125" stop-color="rgb(98.823547%, 3.137207%, 19.607544%)" stop-opacity="1"/>
<stop offset="0.535156" stop-color="rgb(98.823547%, 3.921509%, 19.999695%)" stop-opacity="1"/>
<stop offset="0.539062" stop-color="rgb(98.823547%, 4.31366%, 20.391846%)" stop-opacity="1"/>
<stop offset="0.542969" stop-color="rgb(98.823547%, 5.097961%, 20.783997%)" stop-opacity="1"/>
<stop offset="0.546875" stop-color="rgb(98.823547%, 5.882263%, 21.176147%)" stop-opacity="1"/>
<stop offset="0.550781" stop-color="rgb(98.823547%, 6.274414%, 21.176147%)" stop-opacity="1"/>
<stop offset="0.554688" stop-color="rgb(99.215698%, 7.058716%, 21.568298%)" stop-opacity="1"/>
<stop offset="0.558594" stop-color="rgb(99.215698%, 7.843018%, 21.960449%)" stop-opacity="1"/>
<stop offset="0.5625" stop-color="rgb(99.215698%, 8.235168%, 22.3526%)" stop-opacity="1"/>
<stop offset="0.566406" stop-color="rgb(99.215698%, 9.01947%, 22.744751%)" stop-opacity="1"/>
<stop offset="0.570312" stop-color="rgb(99.215698%, 9.803772%, 23.136902%)" stop-opacity="1"/>
<stop offset="0.574219" stop-color="rgb(99.215698%, 10.195923%, 23.529053%)" stop-opacity="1"/>
<stop offset="0.578125" stop-color="rgb(99.215698%, 10.980225%, 23.529053%)" stop-opacity="1"/>
<stop offset="0.582031" stop-color="rgb(99.215698%, 11.372375%, 23.921204%)" stop-opacity="1"/>
<stop offset="0.585938" stop-color="rgb(99.215698%, 12.156677%, 24.313354%)" stop-opacity="1"/>
<stop offset="0.589844" stop-color="rgb(99.215698%, 12.940979%, 24.705505%)" stop-opacity="1"/>
<stop offset="0.59375" stop-color="rgb(99.215698%, 13.33313%, 25.097656%)" stop-opacity="1"/>
<stop offset="0.597656" stop-color="rgb(99.215698%, 14.117432%, 25.489807%)" stop-opacity="1"/>
<stop offset="0.601562" stop-color="rgb(99.215698%, 14.901733%, 25.881958%)" stop-opacity="1"/>
<stop offset="0.605469" stop-color="rgb(99.215698%, 15.293884%, 25.881958%)" stop-opacity="1"/>
<stop offset="0.609375" stop-color="rgb(99.215698%, 16.078186%, 26.274109%)" stop-opacity="1"/>
<stop offset="0.613281" stop-color="rgb(99.215698%, 16.862488%, 26.66626%)" stop-opacity="1"/>
<stop offset="0.617188" stop-color="rgb(99.215698%, 17.254639%, 27.058411%)" stop-opacity="1"/>
<stop offset="0.621094" stop-color="rgb(99.215698%, 18.03894%, 27.450562%)" stop-opacity="1"/>
<stop offset="0.625" stop-color="rgb(99.215698%, 18.823242%, 27.842712%)" stop-opacity="1"/>
<stop offset="0.628906" stop-color="rgb(99.215698%, 19.215393%, 28.234863%)" stop-opacity="1"/>
<stop offset="0.632812" stop-color="rgb(99.215698%, 19.999695%, 28.234863%)" stop-opacity="1"/>
<stop offset="0.636719" stop-color="rgb(99.215698%, 20.783997%, 28.627014%)" stop-opacity="1"/>
<stop offset="0.640625" stop-color="rgb(99.607849%, 21.176147%, 29.019165%)" stop-opacity="1"/>
<stop offset="0.644531" stop-color="rgb(99.607849%, 21.960449%, 29.411316%)" stop-opacity="1"/>
<stop offset="0.648438" stop-color="rgb(99.607849%, 22.744751%, 29.803467%)" stop-opacity="1"/>
<stop offset="0.652344" stop-color="rgb(99.607849%, 23.136902%, 30.195618%)" stop-opacity="1"/>
<stop offset="0.65625" stop-color="rgb(99.607849%, 23.921204%, 30.587769%)" stop-opacity="1"/>
<stop offset="0.660156" stop-color="rgb(99.607849%, 24.705505%, 30.587769%)" stop-opacity="1"/>
<stop offset="0.664062" stop-color="rgb(99.607849%, 25.097656%, 30.979919%)" stop-opacity="1"/>
<stop offset="0.667969" stop-color="rgb(99.607849%, 25.881958%, 31.37207%)" stop-opacity="1"/>
<stop offset="0.671875" stop-color="rgb(99.607849%, 26.66626%, 31.764221%)" stop-opacity="1"/>
<stop offset="0.675781" stop-color="rgb(99.607849%, 27.058411%, 32.156372%)" stop-opacity="1"/>
<stop offset="0.679688" stop-color="rgb(99.607849%, 27.842712%, 32.548523%)" stop-opacity="1"/>
<stop offset="0.683594" stop-color="rgb(99.607849%, 28.627014%, 32.940674%)" stop-opacity="1"/>
<stop offset="0.6875" stop-color="rgb(99.607849%, 29.019165%, 33.332825%)" stop-opacity="1"/>
<stop offset="0.691406" stop-color="rgb(99.607849%, 29.803467%, 33.332825%)" stop-opacity="1"/>
<stop offset="0.695312" stop-color="rgb(99.607849%, 30.587769%, 33.724976%)" stop-opacity="1"/>
<stop offset="0.699219" stop-color="rgb(99.607849%, 30.979919%, 34.117126%)" stop-opacity="1"/>
<stop offset="0.703125" stop-color="rgb(99.607849%, 31.764221%, 34.509277%)" stop-opacity="1"/>
<stop offset="0.707031" stop-color="rgb(99.607849%, 32.156372%, 34.901428%)" stop-opacity="1"/>
<stop offset="0.710938" stop-color="rgb(99.607849%, 32.940674%, 35.293579%)" stop-opacity="1"/>
<stop offset="0.714844" stop-color="rgb(99.607849%, 33.724976%, 35.68573%)" stop-opacity="1"/>
<stop offset="0.71875" stop-color="rgb(99.607849%, 34.117126%, 35.68573%)" stop-opacity="1"/>
<stop offset="0.722656" stop-color="rgb(100%, 34.901428%, 36.077881%)" stop-opacity="1"/>
<stop offset="0.726562" stop-color="rgb(100%, 35.68573%, 36.470032%)" stop-opacity="1"/>
<stop offset="0.730469" stop-color="rgb(100%, 36.077881%, 36.862183%)" stop-opacity="1"/>
<stop offset="0.734375" stop-color="rgb(100%, 36.862183%, 37.254333%)" stop-opacity="1"/>
<stop offset="0.738281" stop-color="rgb(100%, 37.646484%, 37.646484%)" stop-opacity="1"/>
<stop offset="0.742188" stop-color="rgb(100%, 38.038635%, 38.038635%)" stop-opacity="1"/>
<stop offset="0.746094" stop-color="rgb(100%, 38.822937%, 38.038635%)" stop-opacity="1"/>
<stop offset="0.75" stop-color="rgb(100%, 39.607239%, 38.430786%)" stop-opacity="1"/>
<stop offset="0.753906" stop-color="rgb(100%, 39.99939%, 38.822937%)" stop-opacity="1"/>
<stop offset="0.757812" stop-color="rgb(100%, 40.783691%, 39.215088%)" stop-opacity="1"/>
<stop offset="0.761719" stop-color="rgb(100%, 41.175842%, 39.607239%)" stop-opacity="1"/>
<stop offset="0.765625" stop-color="rgb(100%, 41.567993%, 40.391541%)" stop-opacity="1"/>
<stop offset="0.769531" stop-color="rgb(99.607849%, 41.960144%, 41.175842%)" stop-opacity="1"/>
<stop offset="0.773438" stop-color="rgb(99.607849%, 41.960144%, 41.960144%)" stop-opacity="1"/>
<stop offset="0.777344" stop-color="rgb(99.215698%, 41.960144%, 42.744446%)" stop-opacity="1"/>
<stop offset="0.78125" stop-color="rgb(99.215698%, 42.352295%, 43.528748%)" stop-opacity="1"/>
<stop offset="0.785156" stop-color="rgb(98.823547%, 42.352295%, 44.313049%)" stop-opacity="1"/>
<stop offset="0.789062" stop-color="rgb(98.823547%, 42.352295%, 45.097351%)" stop-opacity="1"/>
<stop offset="0.792969" stop-color="rgb(98.431396%, 42.744446%, 45.489502%)" stop-opacity="1"/>
<stop offset="0.796875" stop-color="rgb(98.431396%, 42.744446%, 46.273804%)" stop-opacity="1"/>
<stop offset="0.800781" stop-color="rgb(98.039246%, 42.744446%, 47.058105%)" stop-opacity="1"/>
<stop offset="0.804688" stop-color="rgb(98.039246%, 43.136597%, 47.842407%)" stop-opacity="1"/>
<stop offset="0.808594" stop-color="rgb(97.647095%, 43.136597%, 48.626709%)" stop-opacity="1"/>
<stop offset="0.8125" stop-color="rgb(97.647095%, 43.136597%, 49.411011%)" stop-opacity="1"/>
<stop offset="0.816406" stop-color="rgb(97.254944%, 43.528748%, 50.196838%)" stop-opacity="1"/>
<stop offset="0.820312" stop-color="rgb(97.254944%, 43.528748%, 50.98114%)" stop-opacity="1"/>
<stop offset="0.824219" stop-color="rgb(96.862793%, 43.528748%, 51.765442%)" stop-opacity="1"/>
<stop offset="0.828125" stop-color="rgb(96.862793%, 43.920898%, 52.549744%)" stop-opacity="1"/>
<stop offset="0.832031" stop-color="rgb(96.470642%, 43.920898%, 53.334045%)" stop-opacity="1"/>
<stop offset="0.835938" stop-color="rgb(96.470642%, 43.920898%, 54.118347%)" stop-opacity="1"/>
<stop offset="0.839844" stop-color="rgb(96.078491%, 43.920898%, 54.902649%)" stop-opacity="1"/>
<stop offset="0.84375" stop-color="rgb(96.078491%, 44.313049%, 55.686951%)" stop-opacity="1"/>
<stop offset="0.847656" stop-color="rgb(95.68634%, 44.313049%, 56.471252%)" stop-opacity="1"/>
<stop offset="0.851562" stop-color="rgb(95.68634%, 44.313049%, 57.255554%)" stop-opacity="1"/>
<stop offset="0.855469" stop-color="rgb(95.68634%, 44.7052%, 58.039856%)" stop-opacity="1"/>
<stop offset="0.859375" stop-color="rgb(95.294189%, 44.7052%, 58.824158%)" stop-opacity="1"/>
<stop offset="0.863281" stop-color="rgb(95.294189%, 44.7052%, 59.608459%)" stop-opacity="1"/>
<stop offset="0.867188" stop-color="rgb(94.902039%, 45.097351%, 60.392761%)" stop-opacity="1"/>
<stop offset="0.871094" stop-color="rgb(94.902039%, 45.097351%, 61.177063%)" stop-opacity="1"/>
<stop offset="0.875" stop-color="rgb(94.509888%, 45.097351%, 61.961365%)" stop-opacity="1"/>
<stop offset="0.878906" stop-color="rgb(94.509888%, 45.489502%, 62.745667%)" stop-opacity="1"/>
<stop offset="0.882812" stop-color="rgb(94.117737%, 45.489502%, 63.529968%)" stop-opacity="1"/>
<stop offset="0.886719" stop-color="rgb(94.117737%, 45.489502%, 64.31427%)" stop-opacity="1"/>
<stop offset="0.890625" stop-color="rgb(93.725586%, 45.881653%, 65.098572%)" stop-opacity="1"/>
<stop offset="0.894531" stop-color="rgb(93.725586%, 45.881653%, 65.882874%)" stop-opacity="1"/>
<stop offset="0.898438" stop-color="rgb(93.333435%, 45.881653%, 66.667175%)" stop-opacity="1"/>
<stop offset="0.902344" stop-color="rgb(93.333435%, 46.273804%, 67.451477%)" stop-opacity="1"/>
<stop offset="0.90625" stop-color="rgb(92.941284%, 46.273804%, 68.235779%)" stop-opacity="1"/>
<stop offset="0.910156" stop-color="rgb(92.941284%, 46.273804%, 69.020081%)" stop-opacity="1"/>
<stop offset="0.914062" stop-color="rgb(92.549133%, 46.665955%, 69.804382%)" stop-opacity="1"/>
<stop offset="0.917969" stop-color="rgb(92.549133%, 46.665955%, 70.588684%)" stop-opacity="1"/>
<stop offset="0.921875" stop-color="rgb(92.156982%, 46.665955%, 71.372986%)" stop-opacity="1"/>
<stop offset="0.925781" stop-color="rgb(92.156982%, 47.058105%, 72.157288%)" stop-opacity="1"/>
<stop offset="0.929688" stop-color="rgb(91.764832%, 47.058105%, 72.941589%)" stop-opacity="1"/>
<stop offset="0.933594" stop-color="rgb(91.764832%, 47.058105%, 73.725891%)" stop-opacity="1"/>
<stop offset="0.9375" stop-color="rgb(91.372681%, 47.450256%, 74.510193%)" stop-opacity="1"/>
<stop offset="0.941406" stop-color="rgb(91.372681%, 47.450256%, 75.294495%)" stop-opacity="1"/>
<stop offset="0.945312" stop-color="rgb(90.98053%, 47.450256%, 76.078796%)" stop-opacity="1"/>
<stop offset="0.949219" stop-color="rgb(90.98053%, 47.842407%, 76.863098%)" stop-opacity="1"/>
<stop offset="0.953125" stop-color="rgb(90.588379%, 47.842407%, 77.6474%)" stop-opacity="1"/>
<stop offset="0.957031" stop-color="rgb(90.588379%, 47.842407%, 78.431702%)" stop-opacity="1"/>
<stop offset="0.960938" stop-color="rgb(90.196228%, 48.234558%, 79.216003%)" stop-opacity="1"/>
<stop offset="0.964844" stop-color="rgb(90.196228%, 48.234558%, 80.000305%)" stop-opacity="1"/>
<stop offset="0.96875" stop-color="rgb(89.804077%, 48.234558%, 80.784607%)" stop-opacity="1"/>
<stop offset="0.972656" stop-color="rgb(89.804077%, 48.626709%, 81.568909%)" stop-opacity="1"/>
<stop offset="0.976562" stop-color="rgb(89.804077%, 48.626709%, 82.35321%)" stop-opacity="1"/>
<stop offset="0.980469" stop-color="rgb(89.411926%, 48.626709%, 83.137512%)" stop-opacity="1"/>
<stop offset="0.984375" stop-color="rgb(89.411926%, 49.01886%, 83.921814%)" stop-opacity="1"/>
<stop offset="0.988281" stop-color="rgb(89.019775%, 49.01886%, 84.313965%)" stop-opacity="1"/>
<stop offset="0.992188" stop-color="rgb(89.019775%, 49.01886%, 84.706116%)" stop-opacity="1"/>
<stop offset="1" stop-color="rgb(89.019775%, 49.01886%, 84.706116%)" stop-opacity="1"/>
</radialGradient>
</defs>
<g clip-path="url(#clip-0)">
<g clip-path="url(#clip-1)">
<path fill-rule="nonzero" fill="url(#radial-pattern-0)" d="M 59.4375 298.535156 L 114.378906 188.152344 L 169.566406 298.019531 L 114.625 408.402344 Z M 59.4375 298.535156 "/>
</g>
</g>
<path fill-rule="nonzero" fill="rgb(100%, 100%, 100%)" fill-opacity="1" d="M 312.101562 286.332031 L 305.6875 286.332031 L 305.6875 315.355469 L 293.949219 315.355469 L 293.949219 252.441406 L 305.6875 252.441406 L 305.6875 274.441406 L 312.101562 274.441406 L 312.101562 252.441406 L 323.757812 252.441406 L 323.757812 315.894531 L 312.101562 315.894531 Z M 312.101562 286.332031 "/>
<path fill-rule="nonzero" fill="rgb(100%, 100%, 100%)" fill-opacity="1" d="M 280.515625 331.496094 L 280.515625 311.351562 L 267.519531 311.351562 L 267.480469 327.289062 L 267.480469 343.070312 L 323.75 343.070312 L 323.75 331.496094 L 280.507812 331.496094 Z M 280.515625 331.496094 "/>
<path fill-rule="nonzero" fill="rgb(100%, 100%, 100%)" fill-opacity="1" d="M 216.492188 335.261719 L 189.15625 335.261719 L 189.15625 325.398438 L 216.492188 325.398438 Z M 176.382812 315.550781 L 176.382812 345.949219 L 216.492188 345.949219 L 218.15625 345.929688 L 219.257812 345.878906 L 220.207031 345.785156 L 221.066406 345.652344 L 221.863281 345.488281 L 222.597656 345.285156 L 223.292969 345.050781 L 223.933594 344.773438 L 224.535156 344.457031 L 225.109375 344.113281 L 225.640625 343.722656 L 226.128906 343.304688 L 226.589844 342.847656 L 227.007812 342.355469 L 227.394531 341.824219 L 227.742188 341.253906 L 228.058594 340.652344 L 228.335938 340.007812 L 228.570312 339.3125 L 228.773438 338.578125 L 228.9375 337.78125 L 229.070312 336.925781 L 229.160156 335.976562 L 229.210938 334.871094 L 229.234375 333.210938 L 229.234375 315.570312 L 176.382812 315.570312 Z M 176.382812 315.550781 "/>
<path fill-rule="evenodd" fill="rgb(100%, 100%, 100%)" fill-opacity="1" d="M 202.621094 269.273438 C 199.933594 269.273438 197.914062 270.152344 196.136719 271.929688 C 194.351562 273.726562 193.460938 275.847656 193.460938 278.320312 C 193.460938 280.789062 194.359375 282.648438 196.136719 284.300781 C 197.902344 285.945312 199.933594 286.761719 202.621094 286.761719 C 205.304688 286.761719 207.558594 285.945312 209.410156 284.300781 C 211.246094 282.65625 212.164062 280.800781 212.164062 278.320312 C 212.164062 275.839844 211.253906 273.703125 209.410156 271.929688 C 207.558594 270.152344 205.304688 269.273438 202.621094 269.273438 M 210.355469 249.277344 L 210.355469 256.503906 L 235.480469 256.503906 L 235.480469 266.875 L 219.902344 266.875 C 221.105469 268.152344 222.117188 269.519531 222.914062 271 C 224.128906 273.328125 224.730469 275.789062 224.730469 278.328125 C 224.730469 280.871094 224.117188 283.199219 222.871094 285.503906 C 221.628906 287.824219 220.015625 289.855469 217.992188 291.589844 C 215.910156 293.261719 213.625 294.53125 211.152344 295.40625 C 210.550781 295.664062 209.917969 295.867188 209.246094 296 L 209.246094 300.367188 L 243.410156 300.367188 L 243.410156 310.925781 L 162.214844 310.925781 L 162.214844 300.367188 L 196.390625 300.367188 L 196.390625 296.101562 C 195.65625 295.898438 194.960938 295.664062 194.289062 295.398438 C 191.796875 294.519531 189.519531 293.253906 187.449219 291.578125 C 185.4375 289.832031 183.847656 287.800781 182.683594 285.496094 C 181.507812 283.199219 180.917969 280.789062 180.917969 278.320312 C 180.917969 275.847656 181.476562 273.328125 182.621094 270.988281 C 183.4375 269.507812 184.398438 268.140625 185.539062 266.867188 L 170.054688 266.867188 L 170.054688 256.515625 L 195.28125 256.515625 L 195.28125 249.277344 Z M 210.355469 249.277344 "/>
<path fill-rule="evenodd" fill="rgb(100%, 100%, 100%)" fill-opacity="1" d="M 260.277344 288.175781 C 259.453125 287.320312 258.640625 286.101562 258.023438 284.789062 C 257.402344 283.472656 257.09375 282.085938 257.09375 280.691406 C 257.09375 279.300781 257.527344 277.660156 258.007812 276.519531 C 258.492188 275.378906 259.277344 274.21875 260.3125 273.160156 C 261.3125 272.1875 262.390625 271.429688 263.707031 270.824219 C 265.023438 270.199219 266.429688 269.960938 267.816406 269.960938 C 269.203125 269.960938 270.628906 270.269531 271.933594 270.871094 C 273.234375 271.472656 274.4375 272.265625 275.3125 273.167969 C 276.1875 274.070312 277 275.28125 277.609375 276.597656 C 278.234375 277.914062 278.539062 279.300781 278.539062 280.691406 C 278.539062 282.085938 278.226562 283.472656 277.609375 284.789062 C 277.070312 286.171875 276.019531 287.46875 275.320312 288.175781 C 274.445312 289.050781 273.21875 289.882812 271.90625 290.492188 C 270.589844 291.117188 269.203125 291.421875 267.808594 291.421875 C 266.417969 291.421875 265.015625 291.164062 263.652344 290.589844 C 262.285156 290.015625 261.082031 289.03125 260.257812 288.175781 Z M 276.238281 300.769531 C 278.941406 299.613281 281.332031 297.988281 283.34375 296.0625 C 285.273438 294.0625 286.898438 291.660156 288.128906 289.042969 C 289.363281 286.339844 289.984375 283.632812 289.984375 280.707031 C 289.984375 277.78125 289.363281 274.988281 288.128906 272.371094 C 286.890625 269.667969 285.273438 267.355469 283.34375 265.347656 C 281.332031 263.347656 278.945312 261.792969 276.238281 260.644531 C 273.535156 259.480469 270.671875 258.867188 267.746094 258.867188 C 264.820312 258.867188 261.957031 259.488281 259.253906 260.644531 C 256.554688 261.800781 254.160156 263.421875 252.152344 265.347656 C 250.21875 267.351562 248.59375 269.75 247.363281 272.371094 C 246.125 275.070312 245.515625 277.765625 245.515625 280.707031 C 245.515625 283.644531 246.128906 286.425781 247.363281 289.042969 C 248.601562 291.746094 250.21875 294.054688 252.152344 296.0625 C 254.160156 298.066406 256.546875 299.621094 259.253906 300.769531 C 261.957031 301.929688 264.820312 302.546875 267.746094 302.546875 C 270.671875 302.546875 273.535156 301.921875 276.238281 300.769531 "/>
<path fill-rule="nonzero" fill="rgb(100%, 100%, 100%)" fill-opacity="1" d="M 380.691406 307.425781 L 380.691406 319.050781 L 415.003906 319.050781 L 415.003906 330.609375 L 333.617188 330.609375 L 333.617188 319.050781 L 367.929688 319.050781 L 367.929688 307.425781 L 345.019531 307.425781 L 345.019531 278.453125 L 389.207031 278.453125 L 389.207031 271.25 L 345.429688 271.25 L 345.429688 260.066406 L 401.964844 260.066406 L 401.964844 288.9375 L 357.785156 288.9375 L 357.785156 296.339844 L 403.691406 296.339844 L 403.691406 307.425781 Z M 380.691406 307.425781 "/>
<path fill-rule="nonzero" fill="rgb(100%, 100%, 100%)" fill-opacity="1" d="M 482.949219 253.292969 L 495.710938 253.292969 L 495.710938 339.691406 L 482.949219 339.691406 Z M 455.226562 273.132812 C 455.226562 276.269531 454.128906 282.5 453.683594 284.511719 C 455.28125 288.367188 457.421875 292.28125 460.214844 296.273438 C 464.933594 302.988281 470.449219 307.988281 476.765625 312.90625 L 468.390625 320.886719 C 459.617188 313.773438 452.867188 307.179688 448.152344 299.464844 C 447.886719 299.996094 447.585938 300.53125 447.253906 301.0625 C 440.9375 311.167969 434.457031 317.53125 427.808594 321.78125 L 419.332031 313.804688 C 425.050781 309.75 430.601562 303.953125 435.984375 294.777344 C 439.640625 288.53125 441.570312 284.304688 441.765625 273.136719 L 423.019531 273.136719 L 423.019531 261.671875 L 473.574219 261.671875 L 473.574219 273.136719 L 455.226562 273.136719 Z M 455.226562 273.132812 "/>
<path fill-rule="nonzero" fill="rgb(100%, 100%, 100%)" fill-opacity="1" d="M 662.488281 307.3125 L 649.722656 307.3125 L 649.722656 253.703125 L 662.488281 253.703125 Z M 649.722656 343.640625 L 649.722656 323.296875 L 605.953125 323.296875 L 605.953125 312.027344 L 662.488281 312.027344 L 662.488281 343.636719 L 649.722656 343.636719 Z M 592.1875 305.449219 L 592.1875 258.425781 L 635.363281 258.425781 L 635.363281 269.191406 L 604.851562 269.191406 L 604.851562 276.652344 L 634.964844 276.652344 L 634.964844 286.824219 L 604.851562 286.824219 L 604.851562 294.78125 L 605.75 294.78125 C 622.34375 294.574219 634.8125 294.109375 643.039062 292.21875 L 643.039062 302.679688 C 631.738281 305.070312 618.074219 305.449219 602.058594 305.449219 L 592.183594 305.449219 Z M 592.1875 305.449219 "/>
<path fill-rule="nonzero" fill="rgb(100%, 100%, 100%)" fill-opacity="1" d="M 586.160156 332.894531 L 505.59375 332.894531 L 505.59375 321.324219 L 586.160156 321.324219 Z M 586.160156 332.894531 "/>
<path fill-rule="nonzero" fill="rgb(100%, 100%, 100%)" fill-opacity="1" d="M 553.058594 264.191406 C 553.058594 269.078125 552.292969 273.738281 550.691406 278.015625 C 553.746094 281.300781 557.488281 284.507812 561.917969 287.5625 C 570.246094 293.371094 576.28125 297.035156 582.085938 299.097656 L 575.210938 308.109375 C 570.015625 306.277344 564.515625 303.066406 556.496094 298.027344 C 551.683594 295.046875 547.714844 291.992188 544.65625 288.859375 L 542.441406 291.457031 C 535.722656 298.792969 527.167969 304.671875 516.625 309.179688 L 509.675781 299.933594 C 518.6875 295.960938 526.097656 290.996094 531.828125 285.039062 C 537.402344 279.234375 540.152344 272.589844 540.152344 265.027344 L 540.152344 259.757812 L 553.0625 259.757812 L 553.0625 264.1875 Z M 553.058594 264.191406 "/>
<path fill-rule="nonzero" fill="rgb(100%, 100%, 100%)" fill-opacity="1" d="M 753.988281 332.894531 L 673.421875 332.894531 L 673.421875 321.324219 L 753.988281 321.324219 Z M 753.988281 332.894531 "/>
<path fill-rule="nonzero" fill="rgb(100%, 100%, 100%)" fill-opacity="1" d="M 720.886719 264.191406 C 720.886719 269.078125 720.121094 273.738281 718.519531 278.015625 C 721.574219 281.300781 725.316406 284.507812 729.746094 287.5625 C 738.074219 293.371094 744.109375 297.035156 749.914062 299.097656 L 743.039062 308.109375 C 737.84375 306.277344 732.34375 303.066406 724.324219 298.027344 C 719.511719 295.046875 715.542969 291.992188 712.484375 288.859375 L 710.269531 291.457031 C 703.550781 298.792969 694.996094 304.671875 684.453125 309.179688 L 677.503906 299.933594 C 686.515625 295.960938 693.925781 290.996094 699.65625 285.039062 C 705.230469 279.234375 707.980469 272.589844 707.980469 265.027344 L 707.980469 259.757812 L 720.890625 259.757812 L 720.890625 264.1875 Z M 720.886719 264.191406 "/>
</svg>
